<mxfile host="Electron" agent="Mozilla/5.0 (Windows NT 10.0; Win64; x64) AppleWebKit/537.36 (KHTML, like Gecko) draw.io/27.0.2 Chrome/134.0.6998.205 Electron/35.3.0 Safari/537.36" version="27.0.2">
  <diagram name="Page-1" id="ITsfA0jUoIWZ8JOImpfv">
    <mxGraphModel dx="1463" dy="1789" grid="1" gridSize="10" guides="1" tooltips="1" connect="1" arrows="1" fold="1" page="1" pageScale="1" pageWidth="827" pageHeight="1169" math="0" shadow="0">
      <root>
        <mxCell id="0" />
        <mxCell id="1" parent="0" />
        <mxCell id="N4zCyXwm6U3EzVGP2dkM-3" style="edgeStyle=orthogonalEdgeStyle;rounded=0;orthogonalLoop=1;jettySize=auto;html=1;exitX=0.5;exitY=1;exitDx=0;exitDy=0;entryX=0.5;entryY=0;entryDx=0;entryDy=0;" edge="1" parent="1" source="N4zCyXwm6U3EzVGP2dkM-1" target="N4zCyXwm6U3EzVGP2dkM-2">
          <mxGeometry relative="1" as="geometry" />
        </mxCell>
        <mxCell id="N4zCyXwm6U3EzVGP2dkM-1" value="" style="ellipse;fillColor=strokeColor;html=1;" vertex="1" parent="1">
          <mxGeometry x="380" y="60" width="30" height="30" as="geometry" />
        </mxCell>
        <mxCell id="N4zCyXwm6U3EzVGP2dkM-5" style="edgeStyle=orthogonalEdgeStyle;rounded=0;orthogonalLoop=1;jettySize=auto;html=1;exitX=0.5;exitY=1;exitDx=0;exitDy=0;" edge="1" parent="1" source="N4zCyXwm6U3EzVGP2dkM-2" target="N4zCyXwm6U3EzVGP2dkM-4">
          <mxGeometry relative="1" as="geometry" />
        </mxCell>
        <mxCell id="N4zCyXwm6U3EzVGP2dkM-6" value="Opens App" style="edgeLabel;html=1;align=center;verticalAlign=middle;resizable=0;points=[];" vertex="1" connectable="0" parent="N4zCyXwm6U3EzVGP2dkM-5">
          <mxGeometry x="-0.2128" relative="1" as="geometry">
            <mxPoint as="offset" />
          </mxGeometry>
        </mxCell>
        <mxCell id="N4zCyXwm6U3EzVGP2dkM-2" value="App Closed" style="html=1;align=center;verticalAlign=top;rounded=1;absoluteArcSize=1;arcSize=10;dashed=0;whiteSpace=wrap;" vertex="1" parent="1">
          <mxGeometry x="352.5" y="140" width="85" height="30" as="geometry" />
        </mxCell>
        <mxCell id="N4zCyXwm6U3EzVGP2dkM-8" style="edgeStyle=orthogonalEdgeStyle;rounded=0;orthogonalLoop=1;jettySize=auto;html=1;exitX=0.5;exitY=1;exitDx=0;exitDy=0;entryX=0.5;entryY=0;entryDx=0;entryDy=0;" edge="1" parent="1" source="N4zCyXwm6U3EzVGP2dkM-4" target="N4zCyXwm6U3EzVGP2dkM-7">
          <mxGeometry relative="1" as="geometry" />
        </mxCell>
        <mxCell id="N4zCyXwm6U3EzVGP2dkM-9" value="Enables Accessibillity" style="edgeLabel;html=1;align=center;verticalAlign=middle;resizable=0;points=[];" vertex="1" connectable="0" parent="N4zCyXwm6U3EzVGP2dkM-8">
          <mxGeometry x="-0.307" y="-2" relative="1" as="geometry">
            <mxPoint as="offset" />
          </mxGeometry>
        </mxCell>
        <mxCell id="N4zCyXwm6U3EzVGP2dkM-4" value="App opened" style="html=1;align=center;verticalAlign=top;rounded=1;absoluteArcSize=1;arcSize=10;dashed=0;whiteSpace=wrap;" vertex="1" parent="1">
          <mxGeometry x="352.5" y="230" width="90" height="30" as="geometry" />
        </mxCell>
        <mxCell id="N4zCyXwm6U3EzVGP2dkM-11" style="edgeStyle=orthogonalEdgeStyle;rounded=0;orthogonalLoop=1;jettySize=auto;html=1;exitX=0.5;exitY=1;exitDx=0;exitDy=0;entryX=0.5;entryY=0;entryDx=0;entryDy=0;" edge="1" parent="1" source="N4zCyXwm6U3EzVGP2dkM-7" target="N4zCyXwm6U3EzVGP2dkM-10">
          <mxGeometry relative="1" as="geometry" />
        </mxCell>
        <mxCell id="N4zCyXwm6U3EzVGP2dkM-7" value="Accessibility Filter On" style="html=1;align=center;verticalAlign=top;rounded=1;absoluteArcSize=1;arcSize=10;dashed=0;whiteSpace=wrap;" vertex="1" parent="1">
          <mxGeometry x="325" y="320" width="140" height="30" as="geometry" />
        </mxCell>
        <mxCell id="N4zCyXwm6U3EzVGP2dkM-13" style="edgeStyle=orthogonalEdgeStyle;rounded=0;orthogonalLoop=1;jettySize=auto;html=1;exitX=1;exitY=0.25;exitDx=0;exitDy=0;entryX=0;entryY=0.25;entryDx=0;entryDy=0;" edge="1" parent="1" source="N4zCyXwm6U3EzVGP2dkM-10" target="N4zCyXwm6U3EzVGP2dkM-12">
          <mxGeometry relative="1" as="geometry" />
        </mxCell>
        <mxCell id="N4zCyXwm6U3EzVGP2dkM-14" value="Searches Routes" style="edgeLabel;html=1;align=center;verticalAlign=middle;resizable=0;points=[];" vertex="1" connectable="0" parent="N4zCyXwm6U3EzVGP2dkM-13">
          <mxGeometry x="-0.2169" relative="1" as="geometry">
            <mxPoint as="offset" />
          </mxGeometry>
        </mxCell>
        <mxCell id="N4zCyXwm6U3EzVGP2dkM-10" value="Destination Input" style="html=1;align=center;verticalAlign=top;rounded=1;absoluteArcSize=1;arcSize=10;dashed=0;whiteSpace=wrap;" vertex="1" parent="1">
          <mxGeometry x="339" y="410" width="112" height="30" as="geometry" />
        </mxCell>
        <mxCell id="N4zCyXwm6U3EzVGP2dkM-16" style="edgeStyle=orthogonalEdgeStyle;rounded=0;orthogonalLoop=1;jettySize=auto;html=1;exitX=0.5;exitY=1;exitDx=0;exitDy=0;entryX=0.5;entryY=0;entryDx=0;entryDy=0;" edge="1" parent="1" source="N4zCyXwm6U3EzVGP2dkM-12" target="N4zCyXwm6U3EzVGP2dkM-15">
          <mxGeometry relative="1" as="geometry" />
        </mxCell>
        <mxCell id="N4zCyXwm6U3EzVGP2dkM-17" value="Customizes Needs" style="edgeLabel;html=1;align=center;verticalAlign=middle;resizable=0;points=[];" vertex="1" connectable="0" parent="N4zCyXwm6U3EzVGP2dkM-16">
          <mxGeometry x="-0.3924" y="-6" relative="1" as="geometry">
            <mxPoint as="offset" />
          </mxGeometry>
        </mxCell>
        <mxCell id="N4zCyXwm6U3EzVGP2dkM-25" style="edgeStyle=orthogonalEdgeStyle;rounded=0;orthogonalLoop=1;jettySize=auto;html=1;exitX=0;exitY=0.75;exitDx=0;exitDy=0;entryX=1;entryY=0.5;entryDx=0;entryDy=0;" edge="1" parent="1" source="N4zCyXwm6U3EzVGP2dkM-12" target="N4zCyXwm6U3EzVGP2dkM-24">
          <mxGeometry relative="1" as="geometry" />
        </mxCell>
        <mxCell id="N4zCyXwm6U3EzVGP2dkM-26" value="Checks Facilities" style="edgeLabel;html=1;align=center;verticalAlign=middle;resizable=0;points=[];" vertex="1" connectable="0" parent="N4zCyXwm6U3EzVGP2dkM-25">
          <mxGeometry x="-0.0732" y="3" relative="1" as="geometry">
            <mxPoint as="offset" />
          </mxGeometry>
        </mxCell>
        <mxCell id="N4zCyXwm6U3EzVGP2dkM-12" value="Accessible Routes" style="html=1;align=center;verticalAlign=top;rounded=1;absoluteArcSize=1;arcSize=10;dashed=0;whiteSpace=wrap;" vertex="1" parent="1">
          <mxGeometry x="570" y="410" width="120" height="30" as="geometry" />
        </mxCell>
        <mxCell id="N4zCyXwm6U3EzVGP2dkM-19" style="edgeStyle=orthogonalEdgeStyle;rounded=0;orthogonalLoop=1;jettySize=auto;html=1;exitX=0.5;exitY=1;exitDx=0;exitDy=0;entryX=0.5;entryY=0;entryDx=0;entryDy=0;" edge="1" parent="1" source="N4zCyXwm6U3EzVGP2dkM-15" target="N4zCyXwm6U3EzVGP2dkM-18">
          <mxGeometry relative="1" as="geometry" />
        </mxCell>
        <mxCell id="N4zCyXwm6U3EzVGP2dkM-20" value="Applies Filters" style="edgeLabel;html=1;align=center;verticalAlign=middle;resizable=0;points=[];" vertex="1" connectable="0" parent="N4zCyXwm6U3EzVGP2dkM-19">
          <mxGeometry x="-0.0157" y="-2" relative="1" as="geometry">
            <mxPoint as="offset" />
          </mxGeometry>
        </mxCell>
        <mxCell id="N4zCyXwm6U3EzVGP2dkM-15" value="Route Customization" style="html=1;align=center;verticalAlign=top;rounded=1;absoluteArcSize=1;arcSize=10;dashed=0;whiteSpace=wrap;" vertex="1" parent="1">
          <mxGeometry x="570" y="500" width="130" height="30" as="geometry" />
        </mxCell>
        <mxCell id="N4zCyXwm6U3EzVGP2dkM-22" style="edgeStyle=orthogonalEdgeStyle;rounded=0;orthogonalLoop=1;jettySize=auto;html=1;exitX=0.5;exitY=1;exitDx=0;exitDy=0;entryX=0.5;entryY=0;entryDx=0;entryDy=0;" edge="1" parent="1" source="N4zCyXwm6U3EzVGP2dkM-18" target="N4zCyXwm6U3EzVGP2dkM-21">
          <mxGeometry relative="1" as="geometry" />
        </mxCell>
        <mxCell id="N4zCyXwm6U3EzVGP2dkM-23" value="Selects Route" style="edgeLabel;html=1;align=center;verticalAlign=middle;resizable=0;points=[];" vertex="1" connectable="0" parent="N4zCyXwm6U3EzVGP2dkM-22">
          <mxGeometry x="0.0107" y="2" relative="1" as="geometry">
            <mxPoint as="offset" />
          </mxGeometry>
        </mxCell>
        <mxCell id="N4zCyXwm6U3EzVGP2dkM-30" style="edgeStyle=orthogonalEdgeStyle;rounded=0;orthogonalLoop=1;jettySize=auto;html=1;exitX=0;exitY=1;exitDx=0;exitDy=0;entryX=0.5;entryY=0;entryDx=0;entryDy=0;" edge="1" parent="1" source="N4zCyXwm6U3EzVGP2dkM-18" target="N4zCyXwm6U3EzVGP2dkM-29">
          <mxGeometry relative="1" as="geometry" />
        </mxCell>
        <mxCell id="N4zCyXwm6U3EzVGP2dkM-31" value="Requests Help[" style="edgeLabel;html=1;align=center;verticalAlign=middle;resizable=0;points=[];" vertex="1" connectable="0" parent="N4zCyXwm6U3EzVGP2dkM-30">
          <mxGeometry x="0.0034" y="-2" relative="1" as="geometry">
            <mxPoint as="offset" />
          </mxGeometry>
        </mxCell>
        <mxCell id="N4zCyXwm6U3EzVGP2dkM-18" value="Route Selection" style="html=1;align=center;verticalAlign=top;rounded=1;absoluteArcSize=1;arcSize=10;dashed=0;whiteSpace=wrap;" vertex="1" parent="1">
          <mxGeometry x="582.5" y="590" width="105" height="30" as="geometry" />
        </mxCell>
        <mxCell id="N4zCyXwm6U3EzVGP2dkM-42" style="edgeStyle=orthogonalEdgeStyle;rounded=0;orthogonalLoop=1;jettySize=auto;html=1;exitX=0;exitY=1;exitDx=0;exitDy=0;entryX=0.5;entryY=0;entryDx=0;entryDy=0;" edge="1" parent="1" source="N4zCyXwm6U3EzVGP2dkM-21" target="N4zCyXwm6U3EzVGP2dkM-41">
          <mxGeometry relative="1" as="geometry" />
        </mxCell>
        <mxCell id="N4zCyXwm6U3EzVGP2dkM-46" style="edgeStyle=orthogonalEdgeStyle;rounded=0;orthogonalLoop=1;jettySize=auto;html=1;exitX=1;exitY=0.25;exitDx=0;exitDy=0;entryX=1;entryY=0.5;entryDx=0;entryDy=0;" edge="1" parent="1" source="N4zCyXwm6U3EzVGP2dkM-21" target="N4zCyXwm6U3EzVGP2dkM-45">
          <mxGeometry relative="1" as="geometry" />
        </mxCell>
        <mxCell id="N4zCyXwm6U3EzVGP2dkM-47" value="Arrives at Appoinment" style="edgeLabel;html=1;align=center;verticalAlign=middle;resizable=0;points=[];" vertex="1" connectable="0" parent="N4zCyXwm6U3EzVGP2dkM-46">
          <mxGeometry x="-0.0882" y="-1" relative="1" as="geometry">
            <mxPoint as="offset" />
          </mxGeometry>
        </mxCell>
        <mxCell id="N4zCyXwm6U3EzVGP2dkM-21" value="Journey Navigation" style="html=1;align=center;verticalAlign=top;rounded=1;absoluteArcSize=1;arcSize=10;dashed=0;whiteSpace=wrap;" vertex="1" parent="1">
          <mxGeometry x="582.5" y="670" width="115" height="30" as="geometry" />
        </mxCell>
        <mxCell id="N4zCyXwm6U3EzVGP2dkM-27" style="edgeStyle=orthogonalEdgeStyle;rounded=0;orthogonalLoop=1;jettySize=auto;html=1;exitX=0.5;exitY=1;exitDx=0;exitDy=0;entryX=0;entryY=0.5;entryDx=0;entryDy=0;" edge="1" parent="1" source="N4zCyXwm6U3EzVGP2dkM-24" target="N4zCyXwm6U3EzVGP2dkM-18">
          <mxGeometry relative="1" as="geometry" />
        </mxCell>
        <mxCell id="N4zCyXwm6U3EzVGP2dkM-28" value="Confirms Availability" style="edgeLabel;html=1;align=center;verticalAlign=middle;resizable=0;points=[];" vertex="1" connectable="0" parent="N4zCyXwm6U3EzVGP2dkM-27">
          <mxGeometry x="-0.0146" relative="1" as="geometry">
            <mxPoint as="offset" />
          </mxGeometry>
        </mxCell>
        <mxCell id="N4zCyXwm6U3EzVGP2dkM-24" value="Elevator Status Check" style="html=1;align=center;verticalAlign=top;rounded=1;absoluteArcSize=1;arcSize=10;dashed=0;whiteSpace=wrap;" vertex="1" parent="1">
          <mxGeometry x="349" y="500" width="130" height="30" as="geometry" />
        </mxCell>
        <mxCell id="N4zCyXwm6U3EzVGP2dkM-32" style="edgeStyle=orthogonalEdgeStyle;rounded=0;orthogonalLoop=1;jettySize=auto;html=1;exitX=1;exitY=0.5;exitDx=0;exitDy=0;" edge="1" parent="1" source="N4zCyXwm6U3EzVGP2dkM-29">
          <mxGeometry relative="1" as="geometry">
            <mxPoint x="580" y="685.1764705882354" as="targetPoint" />
          </mxGeometry>
        </mxCell>
        <mxCell id="N4zCyXwm6U3EzVGP2dkM-33" value="Assistance Confirmed" style="edgeLabel;html=1;align=center;verticalAlign=middle;resizable=0;points=[];" vertex="1" connectable="0" parent="N4zCyXwm6U3EzVGP2dkM-32">
          <mxGeometry x="-0.1045" relative="1" as="geometry">
            <mxPoint as="offset" />
          </mxGeometry>
        </mxCell>
        <mxCell id="N4zCyXwm6U3EzVGP2dkM-29" value="Assistance Request" style="html=1;align=center;verticalAlign=top;rounded=1;absoluteArcSize=1;arcSize=10;dashed=0;whiteSpace=wrap;" vertex="1" parent="1">
          <mxGeometry x="310" y="670" width="126" height="30" as="geometry" />
        </mxCell>
        <mxCell id="N4zCyXwm6U3EzVGP2dkM-38" style="edgeStyle=orthogonalEdgeStyle;rounded=0;orthogonalLoop=1;jettySize=auto;html=1;exitX=0;exitY=0.5;exitDx=0;exitDy=0;entryX=1;entryY=0.5;entryDx=0;entryDy=0;" edge="1" parent="1" source="N4zCyXwm6U3EzVGP2dkM-34" target="N4zCyXwm6U3EzVGP2dkM-37">
          <mxGeometry relative="1" as="geometry" />
        </mxCell>
        <mxCell id="N4zCyXwm6U3EzVGP2dkM-39" value="Reeouting" style="edgeLabel;html=1;align=center;verticalAlign=middle;resizable=0;points=[];" vertex="1" connectable="0" parent="N4zCyXwm6U3EzVGP2dkM-38">
          <mxGeometry x="0.0669" y="1" relative="1" as="geometry">
            <mxPoint as="offset" />
          </mxGeometry>
        </mxCell>
        <mxCell id="N4zCyXwm6U3EzVGP2dkM-34" value="Barrier Alert" style="html=1;align=center;verticalAlign=top;rounded=1;absoluteArcSize=1;arcSize=10;dashed=0;whiteSpace=wrap;" vertex="1" parent="1">
          <mxGeometry x="587.5" y="760" width="95" height="30" as="geometry" />
        </mxCell>
        <mxCell id="N4zCyXwm6U3EzVGP2dkM-35" style="edgeStyle=orthogonalEdgeStyle;rounded=0;orthogonalLoop=1;jettySize=auto;html=1;exitX=0.5;exitY=1;exitDx=0;exitDy=0;entryX=0.596;entryY=0.031;entryDx=0;entryDy=0;entryPerimeter=0;" edge="1" parent="1" source="N4zCyXwm6U3EzVGP2dkM-21" target="N4zCyXwm6U3EzVGP2dkM-34">
          <mxGeometry relative="1" as="geometry" />
        </mxCell>
        <mxCell id="N4zCyXwm6U3EzVGP2dkM-36" value="Elevator Outage" style="edgeLabel;html=1;align=center;verticalAlign=middle;resizable=0;points=[];" vertex="1" connectable="0" parent="N4zCyXwm6U3EzVGP2dkM-35">
          <mxGeometry x="-0.1102" y="-3" relative="1" as="geometry">
            <mxPoint as="offset" />
          </mxGeometry>
        </mxCell>
        <mxCell id="N4zCyXwm6U3EzVGP2dkM-40" style="edgeStyle=orthogonalEdgeStyle;rounded=0;orthogonalLoop=1;jettySize=auto;html=1;exitX=0;exitY=0.5;exitDx=0;exitDy=0;entryX=0.25;entryY=1;entryDx=0;entryDy=0;" edge="1" parent="1" source="N4zCyXwm6U3EzVGP2dkM-37" target="N4zCyXwm6U3EzVGP2dkM-29">
          <mxGeometry relative="1" as="geometry" />
        </mxCell>
        <mxCell id="N4zCyXwm6U3EzVGP2dkM-37" value="Alternate Route" style="html=1;align=center;verticalAlign=top;rounded=1;absoluteArcSize=1;arcSize=10;dashed=0;whiteSpace=wrap;" vertex="1" parent="1">
          <mxGeometry x="390" y="760" width="110" height="30" as="geometry" />
        </mxCell>
        <mxCell id="N4zCyXwm6U3EzVGP2dkM-43" style="edgeStyle=orthogonalEdgeStyle;rounded=0;orthogonalLoop=1;jettySize=auto;html=1;exitX=0;exitY=0.25;exitDx=0;exitDy=0;entryX=0;entryY=0.5;entryDx=0;entryDy=0;" edge="1" parent="1" source="N4zCyXwm6U3EzVGP2dkM-41" target="N4zCyXwm6U3EzVGP2dkM-4">
          <mxGeometry relative="1" as="geometry">
            <Array as="points">
              <mxPoint x="270" y="888" />
              <mxPoint x="270" y="245" />
            </Array>
          </mxGeometry>
        </mxCell>
        <mxCell id="N4zCyXwm6U3EzVGP2dkM-44" value="Continue Journey" style="edgeLabel;html=1;align=center;verticalAlign=middle;resizable=0;points=[];" vertex="1" connectable="0" parent="N4zCyXwm6U3EzVGP2dkM-43">
          <mxGeometry x="0.2368" relative="1" as="geometry">
            <mxPoint y="1" as="offset" />
          </mxGeometry>
        </mxCell>
        <mxCell id="N4zCyXwm6U3EzVGP2dkM-41" value="Issue Reporting" style="html=1;align=center;verticalAlign=top;rounded=1;absoluteArcSize=1;arcSize=10;dashed=0;whiteSpace=wrap;" vertex="1" parent="1">
          <mxGeometry x="530" y="880" width="101" height="30" as="geometry" />
        </mxCell>
        <mxCell id="N4zCyXwm6U3EzVGP2dkM-49" style="edgeStyle=orthogonalEdgeStyle;rounded=0;orthogonalLoop=1;jettySize=auto;html=1;exitX=0.5;exitY=1;exitDx=0;exitDy=0;entryX=0.5;entryY=0;entryDx=0;entryDy=0;" edge="1" parent="1" source="N4zCyXwm6U3EzVGP2dkM-45" target="N4zCyXwm6U3EzVGP2dkM-48">
          <mxGeometry relative="1" as="geometry" />
        </mxCell>
        <mxCell id="N4zCyXwm6U3EzVGP2dkM-52" value="Rates journey" style="edgeLabel;html=1;align=center;verticalAlign=middle;resizable=0;points=[];" vertex="1" connectable="0" parent="N4zCyXwm6U3EzVGP2dkM-49">
          <mxGeometry x="-0.3259" y="-4" relative="1" as="geometry">
            <mxPoint as="offset" />
          </mxGeometry>
        </mxCell>
        <mxCell id="N4zCyXwm6U3EzVGP2dkM-45" value="Journey Complete" style="html=1;align=center;verticalAlign=top;rounded=1;absoluteArcSize=1;arcSize=10;dashed=0;whiteSpace=wrap;" vertex="1" parent="1">
          <mxGeometry x="479" y="950" width="121" height="30" as="geometry" />
        </mxCell>
        <mxCell id="N4zCyXwm6U3EzVGP2dkM-51" style="edgeStyle=orthogonalEdgeStyle;rounded=0;orthogonalLoop=1;jettySize=auto;html=1;exitX=0.5;exitY=1;exitDx=0;exitDy=0;entryX=0.5;entryY=0;entryDx=0;entryDy=0;" edge="1" parent="1" source="N4zCyXwm6U3EzVGP2dkM-48" target="N4zCyXwm6U3EzVGP2dkM-50">
          <mxGeometry relative="1" as="geometry" />
        </mxCell>
        <mxCell id="N4zCyXwm6U3EzVGP2dkM-48" value="Rating Accessibility" style="html=1;align=center;verticalAlign=top;rounded=1;absoluteArcSize=1;arcSize=10;dashed=0;whiteSpace=wrap;" vertex="1" parent="1">
          <mxGeometry x="479" y="1020" width="120" height="30" as="geometry" />
        </mxCell>
        <mxCell id="N4zCyXwm6U3EzVGP2dkM-50" value="" style="ellipse;html=1;shape=endState;fillColor=strokeColor;" vertex="1" parent="1">
          <mxGeometry x="525" y="1100" width="30" height="30" as="geometry" />
        </mxCell>
      </root>
    </mxGraphModel>
  </diagram>
</mxfile>
